<mxfile host="app.diagrams.net" modified="2024-02-20T06:13:02.804Z" agent="Mozilla/5.0 (Windows NT 10.0; Win64; x64) AppleWebKit/537.36 (KHTML, like Gecko) Chrome/121.0.0.0 Safari/537.36" etag="itQ1sQctuJs41-evHAaP" version="23.1.1" type="github">
  <diagram name="Page-1" id="sm0kRVEz-Inst7l5OoqK">
    <mxGraphModel dx="1434" dy="772" grid="1" gridSize="10" guides="1" tooltips="1" connect="1" arrows="1" fold="1" page="1" pageScale="1" pageWidth="850" pageHeight="1100" math="0" shadow="0">
      <root>
        <mxCell id="0" />
        <mxCell id="1" parent="0" />
        <mxCell id="Wa3dJbLttyMKymf0pXqC-1" value="" style="rounded=0;whiteSpace=wrap;html=1;" vertex="1" parent="1">
          <mxGeometry x="230" y="80" width="370" height="520" as="geometry" />
        </mxCell>
        <mxCell id="Wa3dJbLttyMKymf0pXqC-2" value="perpus digital&amp;nbsp;" style="text;html=1;strokeColor=none;fillColor=none;align=center;verticalAlign=middle;whiteSpace=wrap;rounded=0;" vertex="1" parent="1">
          <mxGeometry x="367.5" y="90" width="95" height="30" as="geometry" />
        </mxCell>
        <mxCell id="Wa3dJbLttyMKymf0pXqC-3" value="" style="ellipse;whiteSpace=wrap;html=1;" vertex="1" parent="1">
          <mxGeometry x="340" y="140" width="150" height="80" as="geometry" />
        </mxCell>
        <mxCell id="Wa3dJbLttyMKymf0pXqC-4" value="" style="ellipse;whiteSpace=wrap;html=1;" vertex="1" parent="1">
          <mxGeometry x="340" y="250" width="150" height="80" as="geometry" />
        </mxCell>
        <mxCell id="Wa3dJbLttyMKymf0pXqC-5" value="" style="ellipse;whiteSpace=wrap;html=1;" vertex="1" parent="1">
          <mxGeometry x="340" y="360" width="150" height="80" as="geometry" />
        </mxCell>
        <mxCell id="Wa3dJbLttyMKymf0pXqC-6" value="" style="ellipse;whiteSpace=wrap;html=1;" vertex="1" parent="1">
          <mxGeometry x="340" y="470" width="150" height="80" as="geometry" />
        </mxCell>
        <mxCell id="Wa3dJbLttyMKymf0pXqC-7" value="Pengunjung" style="shape=umlActor;verticalLabelPosition=bottom;verticalAlign=top;html=1;outlineConnect=0;" vertex="1" parent="1">
          <mxGeometry x="10" y="250" width="90" height="160" as="geometry" />
        </mxCell>
        <mxCell id="Wa3dJbLttyMKymf0pXqC-8" value="Pustakawan" style="shape=umlActor;verticalLabelPosition=bottom;verticalAlign=top;html=1;outlineConnect=0;" vertex="1" parent="1">
          <mxGeometry x="730" y="250" width="90" height="160" as="geometry" />
        </mxCell>
        <mxCell id="Wa3dJbLttyMKymf0pXqC-9" value="" style="endArrow=none;html=1;rounded=0;entryX=0.04;entryY=0.363;entryDx=0;entryDy=0;entryPerimeter=0;" edge="1" parent="1" target="Wa3dJbLttyMKymf0pXqC-3">
          <mxGeometry width="50" height="50" relative="1" as="geometry">
            <mxPoint x="90" y="290" as="sourcePoint" />
            <mxPoint x="140" y="240" as="targetPoint" />
            <Array as="points">
              <mxPoint x="160" y="170" />
            </Array>
          </mxGeometry>
        </mxCell>
        <mxCell id="Wa3dJbLttyMKymf0pXqC-10" value="" style="endArrow=none;html=1;rounded=0;entryX=0;entryY=0.5;entryDx=0;entryDy=0;" edge="1" parent="1" source="Wa3dJbLttyMKymf0pXqC-7" target="Wa3dJbLttyMKymf0pXqC-4">
          <mxGeometry width="50" height="50" relative="1" as="geometry">
            <mxPoint x="120" y="350" as="sourcePoint" />
            <mxPoint x="170" y="300" as="targetPoint" />
          </mxGeometry>
        </mxCell>
        <mxCell id="Wa3dJbLttyMKymf0pXqC-11" value="" style="endArrow=none;html=1;rounded=0;" edge="1" parent="1" target="Wa3dJbLttyMKymf0pXqC-5">
          <mxGeometry width="50" height="50" relative="1" as="geometry">
            <mxPoint x="100" y="374" as="sourcePoint" />
            <mxPoint x="340" y="340" as="targetPoint" />
          </mxGeometry>
        </mxCell>
        <mxCell id="Wa3dJbLttyMKymf0pXqC-12" value="" style="endArrow=none;html=1;rounded=0;exitX=1;exitY=0.5;exitDx=0;exitDy=0;" edge="1" parent="1" source="Wa3dJbLttyMKymf0pXqC-3">
          <mxGeometry width="50" height="50" relative="1" as="geometry">
            <mxPoint x="680" y="320" as="sourcePoint" />
            <mxPoint x="730" y="270" as="targetPoint" />
            <Array as="points">
              <mxPoint x="700" y="180" />
            </Array>
          </mxGeometry>
        </mxCell>
        <mxCell id="Wa3dJbLttyMKymf0pXqC-13" value="" style="endArrow=none;html=1;rounded=0;entryX=0;entryY=0.5;entryDx=0;entryDy=0;" edge="1" parent="1" source="Wa3dJbLttyMKymf0pXqC-4">
          <mxGeometry width="50" height="50" relative="1" as="geometry">
            <mxPoint x="490" y="347" as="sourcePoint" />
            <mxPoint x="730" y="313" as="targetPoint" />
          </mxGeometry>
        </mxCell>
        <mxCell id="Wa3dJbLttyMKymf0pXqC-14" value="" style="endArrow=none;html=1;rounded=0;entryX=0;entryY=0.5;entryDx=0;entryDy=0;exitX=1;exitY=0.5;exitDx=0;exitDy=0;" edge="1" parent="1" source="Wa3dJbLttyMKymf0pXqC-5">
          <mxGeometry width="50" height="50" relative="1" as="geometry">
            <mxPoint x="489" y="321" as="sourcePoint" />
            <mxPoint x="730" y="339" as="targetPoint" />
          </mxGeometry>
        </mxCell>
        <mxCell id="Wa3dJbLttyMKymf0pXqC-15" value="" style="endArrow=none;html=1;rounded=0;entryX=0;entryY=0.5;entryDx=0;entryDy=0;exitX=1;exitY=0.5;exitDx=0;exitDy=0;" edge="1" parent="1" source="Wa3dJbLttyMKymf0pXqC-6">
          <mxGeometry width="50" height="50" relative="1" as="geometry">
            <mxPoint x="490" y="440" as="sourcePoint" />
            <mxPoint x="730" y="379" as="targetPoint" />
          </mxGeometry>
        </mxCell>
        <mxCell id="Wa3dJbLttyMKymf0pXqC-16" value="From pengunjung" style="text;html=1;strokeColor=none;fillColor=none;align=center;verticalAlign=middle;whiteSpace=wrap;rounded=0;" vertex="1" parent="1">
          <mxGeometry x="358.75" y="165" width="112.5" height="30" as="geometry" />
        </mxCell>
        <mxCell id="Wa3dJbLttyMKymf0pXqC-17" value="Pencarian Buku" style="text;html=1;strokeColor=none;fillColor=none;align=center;verticalAlign=middle;whiteSpace=wrap;rounded=0;" vertex="1" parent="1">
          <mxGeometry x="358.75" y="275" width="112.5" height="30" as="geometry" />
        </mxCell>
        <mxCell id="Wa3dJbLttyMKymf0pXqC-18" value="Detail Buku" style="text;html=1;strokeColor=none;fillColor=none;align=center;verticalAlign=middle;whiteSpace=wrap;rounded=0;" vertex="1" parent="1">
          <mxGeometry x="358.75" y="385" width="112.5" height="30" as="geometry" />
        </mxCell>
        <mxCell id="Wa3dJbLttyMKymf0pXqC-19" value="Laporan Statistik" style="text;html=1;strokeColor=none;fillColor=none;align=center;verticalAlign=middle;whiteSpace=wrap;rounded=0;" vertex="1" parent="1">
          <mxGeometry x="358.75" y="495" width="112.5" height="30" as="geometry" />
        </mxCell>
      </root>
    </mxGraphModel>
  </diagram>
</mxfile>
